<svg xmlns="http://www.w3.org/2000/svg" viewBox="0 0 565.3 63.65"><defs><style>.cls-1,.cls-2{fill:#fff;}.cls-2,.cls-3{opacity:0.54;}.cls-3{fill:#dbd0ff;}</style></defs><g id="Layer_2" data-name="Layer 2"><g id="Layer_1-2" data-name="Layer 1"><path class="cls-1" d="M225.12,24.53a18.32,18.32,0,0,0-3.46-6.24A17,17,0,0,0,215.92,14a20.63,20.63,0,0,0-16,0,17,17,0,0,0-5.74,4.33,18.3,18.3,0,0,0-3.45,6.24,23.71,23.71,0,0,0,0,14.65,18.16,18.16,0,0,0,3.45,6.23,16.55,16.55,0,0,0,5.74,4.31,20.87,20.87,0,0,0,16,0,16.55,16.55,0,0,0,5.74-4.31,18.18,18.18,0,0,0,3.46-6.23,23.9,23.9,0,0,0,0-14.65Zm-4.69,12.88a15.2,15.2,0,0,1-2.36,4.93,12.08,12.08,0,0,1-4.13,3.52,14.22,14.22,0,0,1-12,0,11.9,11.9,0,0,1-4.13-3.52,14.8,14.8,0,0,1-2.36-4.93,20.95,20.95,0,0,1,0-11.11,14.71,14.71,0,0,1,2.36-4.93,11.9,11.9,0,0,1,4.13-3.52,14.22,14.22,0,0,1,12,0,12.08,12.08,0,0,1,4.13,3.52,15.1,15.1,0,0,1,2.36,4.93,20.95,20.95,0,0,1,0,11.11Zm-15.05-5.55h0Zm5.1,0h0v0Zm0,0a2.54,2.54,0,0,1-2.54,2.53h0a2.53,2.53,0,1,1,0-5.06h0A2.54,2.54,0,0,1,210.48,31.87Zm156.75-7.58a17.89,17.89,0,0,0-3.49-6.11,17,17,0,0,0-5.8-4.25,21.37,21.37,0,0,0-16.13,0,17,17,0,0,0-5.8,4.25,17.89,17.89,0,0,0-3.49,6.11,22.68,22.68,0,0,0,0,14.38A17.89,17.89,0,0,0,336,44.78a16.59,16.59,0,0,0,5.8,4.22,21.63,21.63,0,0,0,16.13,0,16.59,16.59,0,0,0,5.8-4.22,17.89,17.89,0,0,0,3.49-6.11,22.68,22.68,0,0,0,0-14.38Zm-4.74,12.64a14.35,14.35,0,0,1-2.38,4.83,11.88,11.88,0,0,1-4.17,3.46,14.8,14.8,0,0,1-12.13,0,11.88,11.88,0,0,1-4.17-3.46,14.35,14.35,0,0,1-2.38-4.83,19.92,19.92,0,0,1,0-10.9,14.35,14.35,0,0,1,2.38-4.83,11.86,11.86,0,0,1,4.17-3.45,14.69,14.69,0,0,1,12.13,0,11.86,11.86,0,0,1,4.17,3.45A14.35,14.35,0,0,1,362.49,26a19.92,19.92,0,0,1,0,10.9Zm-15.34-5.07h0Zm5.09,0h0v0Zm0,0a2.54,2.54,0,0,1-2.54,2.53h0a2.53,2.53,0,0,1,0-5.06h0A2.54,2.54,0,0,1,352.24,31.87Zm35.95,16Zm5.09,0h0Zm0,0a2.53,2.53,0,0,1-2.53,2.53h0a2.53,2.53,0,1,1,0-5.06h0A2.53,2.53,0,0,1,393.28,47.89Zm23.53-1.58-8.56-11.39a10.07,10.07,0,0,0,5.49-2.61q3-2.93,3-8.14c0-3.47-1-6.18-3-8.11s-4.9-2.89-8.76-2.89H390.73a2.54,2.54,0,0,0-2.54,2.54V36.4a2.54,2.54,0,0,0,2.54,2.53h0a2.52,2.52,0,0,0,2.54-2.53c0-.88.48-1.22,1.89-1.22h6.89a2.75,2.75,0,0,0,.35.65l10.24,13.63a2.61,2.61,0,0,0,4.15-3.15ZM393.29,28.47V19.88a2.54,2.54,0,0,1,2.53-2.54h7.44c2.9,0,5,.58,6.35,1.75a6.37,6.37,0,0,1,2,5.08,6.45,6.45,0,0,1-2,5.11c-1.34,1.19-3.45,1.76-6.35,1.72h-7.44A2.53,2.53,0,0,1,393.29,28.47ZM561.18,14.89h0Zm-5.1,0h0v0Zm2.55,2.53a2.54,2.54,0,0,1,2.54-2.53h0a2.53,2.53,0,1,1,0,5.06h0A2.54,2.54,0,0,1,558.63,17.41Zm6.67,22.84a9.11,9.11,0,0,1-1.37,5.09,11.19,11.19,0,0,1-3.51,3.44,15.69,15.69,0,0,1-4.8,1.93,23.89,23.89,0,0,1-5.28.6,22.79,22.79,0,0,1-6.09-.79,15.23,15.23,0,0,1-5-2.37,11.33,11.33,0,0,1-3.43-4.07,11.2,11.2,0,0,1-1-3.21A2.25,2.25,0,0,1,537,38.22h.35a2.28,2.28,0,0,1,2.22,1.89,7.14,7.14,0,0,0,.77,2.15,8.27,8.27,0,0,0,2.46,2.79,10.41,10.41,0,0,0,3.57,1.61,16.69,16.69,0,0,0,4.18.53,19.37,19.37,0,0,0,3.46-.32,10.3,10.3,0,0,0,3.14-1.07,6.11,6.11,0,0,0,2.25-2.06,5.94,5.94,0,0,0,.86-3.33,4.57,4.57,0,0,0-1.05-3.13,7.8,7.8,0,0,0-2.79-2,20.77,20.77,0,0,0-3.94-1.22l-4.48-1c-1.52-.33-3-.71-4.47-1.15a15.86,15.86,0,0,1-3.94-1.72,8.19,8.19,0,0,1-2.79-2.76,8,8,0,0,1-1-4.25,9.64,9.64,0,0,1,1.18-4.88A10.19,10.19,0,0,1,540,15a14.06,14.06,0,0,1,4.45-2,20.36,20.36,0,0,1,5.12-.65h.13c.51,0,2.38.24,2.38,2.06,0,2.1-2,2.11-2.72,2.11a15.92,15.92,0,0,0-3.17.31,8.43,8.43,0,0,0-2.76,1.05,5.55,5.55,0,0,0-1.93,1.95,6,6,0,0,0-.72,3.05,3.8,3.8,0,0,0,1,2.79,7.71,7.71,0,0,0,2.79,1.75,23.43,23.43,0,0,0,3.94,1.12c1.47.3,3,.62,4.48,1s3,.75,4.48,1.22a15,15,0,0,1,3.94,1.91,8.53,8.53,0,0,1,3.83,7.61ZM167.11,50.45h-.51a2.32,2.32,0,0,1-1.93-1L157,37.91a2.33,2.33,0,0,0-3.85,0l-8,11.57a2.34,2.34,0,0,1-1.91,1h0a2.32,2.32,0,0,1-1.91-3.65l9.84-14.16a2.35,2.35,0,0,0,0-2.66L142,16.86a2.32,2.32,0,0,1,1.91-3.65h.41a2.34,2.34,0,0,1,1.94,1l7,10.6a2.32,2.32,0,0,0,3.86,0l2.17-2.76a2.32,2.32,0,1,1,3.82,2.64l-4,5.19a2.33,2.33,0,0,0,0,2.67L169,46.79A2.32,2.32,0,0,1,167.11,50.45Zm-3.74-34.71Zm5.09,0Zm-5.09,0a2.55,2.55,0,0,1,2.54-2.54h0a2.54,2.54,0,0,1,0,5.07h0A2.55,2.55,0,0,1,163.37,15.74ZM462.86,48.36h0a2.1,2.1,0,0,1-2.09,2.09H439.58a2.1,2.1,0,0,1-2.09-2.09v-21a2.5,2.5,0,0,1,2.5-2.5h.1a2.5,2.5,0,0,1,2.5,2.5V44.19a2.08,2.08,0,0,0,2.08,2.08h16.1A2.1,2.1,0,0,1,462.86,48.36ZM437.5,15.74h0v0Zm5.1,0h0Zm-5.1,0A2.54,2.54,0,0,1,440,13.21h0a2.53,2.53,0,1,1,0,5.06h0A2.54,2.54,0,0,1,437.5,15.74ZM120.72,48.22v.33a1.92,1.92,0,0,1-1.92,1.92H96a1.92,1.92,0,0,1-1.92-1.92V15.15A1.92,1.92,0,0,1,96,13.23h12.65a1.92,1.92,0,0,1,1.93,1.92v.33a1.92,1.92,0,0,1-1.93,1.92h-7.55a1.92,1.92,0,0,0-1.92,1.93v8a1.92,1.92,0,0,0,1.92,1.92h16a1.92,1.92,0,0,1,1.92,1.92v.33a1.92,1.92,0,0,1-1.92,1.92h-16a1.92,1.92,0,0,0-1.92,1.93v9a1.93,1.93,0,0,0,1.92,1.93H118.8A1.92,1.92,0,0,1,120.72,48.22Zm-4.36-32.91a2.12,2.12,0,0,1,2.13-2.12h0a2.13,2.13,0,1,1,0,4.25h0A2.13,2.13,0,0,1,116.36,15.31Zm0,0h0Zm4.28,0h0Zm389.13,2.27q-4.77-4.38-13.62-4.38H484.94A1.93,1.93,0,0,0,483,15.13V48.52a1.93,1.93,0,0,0,1.93,1.93h11.21a23.55,23.55,0,0,0,8.26-1.31,14.48,14.48,0,0,0,5.74-3.78,15.32,15.32,0,0,0,3.32-6.1,29.2,29.2,0,0,0,1.08-8.32Q514.55,22,509.77,17.59Zm-1,19.9a14.43,14.43,0,0,1-1.85,4,9.36,9.36,0,0,1-2.55,2.55,12.45,12.45,0,0,1-2.87,1.44,11.92,11.92,0,0,1-2.73.62,21.17,21.17,0,0,1-2.15.13H490a1.92,1.92,0,0,1-1.92-1.92v-25A1.92,1.92,0,0,1,490,17.38h6.66a16.16,16.16,0,0,1,5.95,1,9.75,9.75,0,0,1,3.94,2.82,11.38,11.38,0,0,1,2.2,4.49,24.05,24.05,0,0,1,.67,6A20.88,20.88,0,0,1,508.73,37.49Zm-12.09-5.7h0Zm4.28,0h0Zm0,0a2.13,2.13,0,0,1-2.13,2.12h0a2.13,2.13,0,1,1,0-4.25h0A2.13,2.13,0,0,1,500.92,31.8ZM307.85,27.89l-5.55,20A3.49,3.49,0,0,1,299,50.45h0a3.47,3.47,0,0,1-3.34-2.54l-8-28.75h-.11l-8.13,28.76a3.48,3.48,0,0,1-6.71-.06l-8.33-31.59a2.44,2.44,0,0,1,2.36-3.06h.12a2.43,2.43,0,0,1,2.37,1.86l7.06,29.12h.1l7.85-28.32a3.62,3.62,0,0,1,7,0l7.74,28.31H299l4.17-17.54a2.44,2.44,0,1,1,4.71,1.24Zm3.34-12.15a2.53,2.53,0,0,1-2.53,2.53h0a2.54,2.54,0,1,1,0-5.07h0A2.54,2.54,0,0,1,311.19,15.74Zm0,0h0Zm-5.1,0h0ZM242.68,31.87h0Zm5.1,0h0v0Zm0,0a2.54,2.54,0,0,1-2.54,2.53h0a2.53,2.53,0,1,1,0-5.06h0A2.54,2.54,0,0,1,247.78,31.88Z"/><path class="cls-1" d="M62.66,25.68a.9.9,0,0,0-.92.82c-.06.9-.15,1.83-.27,2.73a28.54,28.54,0,0,1-7.72,15.25,23.44,23.44,0,0,1-6.82,4.93,18.58,18.58,0,0,1-8,1.84,18.78,18.78,0,0,1-7.09-1.43,7.12,7.12,0,0,1-.74-.35.79.79,0,0,1,.37-1.5h.13a18.53,18.53,0,0,0,3.07.26,18.74,18.74,0,0,0,7.76-1.71A21.51,21.51,0,0,0,55,27.2c0-.68,0-1.37-.1-2.06A27,27,0,0,0,48.75,9.75,33.77,33.77,0,0,0,35.65.15l-.11,0L35.22,0H35L34.7,0l.18,0-.16,0A1,1,0,0,0,34.3.4a.54.54,0,0,0-.09.15l-.05.21a.93.93,0,0,0,.05.43l.09.14.1.13.14.11.15.08a29.06,29.06,0,0,1,11.76,9.43,23.44,23.44,0,0,1,4.86,13.61A17.31,17.31,0,0,1,47.19,36q-.28.36-.6.69a.83.83,0,0,1-.58.25.76.76,0,0,1-.47-.16.79.79,0,0,1-.23-1l.39-.77a16.75,16.75,0,0,0,1.59-7.19,20.41,20.41,0,0,0-4-11.83A21.56,21.56,0,0,0,32.68,8.07a27.79,27.79,0,0,0-9.47-1.65A29.1,29.1,0,0,0,6.78,11.54,32.58,32.58,0,0,0,.56,16.8a.58.58,0,0,1-.15.11l-.19.25-.15.23-.06.2a.86.86,0,0,0,0,.32l.06.16.09.14a.69.69,0,0,0,.11.13l.14.11.18.08.16,0H.93a1.05,1.05,0,0,0,.24,0l.17-.06.15-.09.14-.12a28.75,28.75,0,0,1,9.29-6.5,27.5,27.5,0,0,1,11-2.4,20.86,20.86,0,0,1,8.42,1.69,19,19,0,0,1,7.12,5.4,17,17,0,0,1,1.38,2.31.81.81,0,0,1-.72,1.15.78.78,0,0,1-.57-.24A17.49,17.49,0,0,0,34.16,17a18.63,18.63,0,0,0-9.91-2.77,22.48,22.48,0,0,0-11.07,3A24.22,24.22,0,0,0,4.45,25.8,27,27,0,0,0,.81,39.51a32.56,32.56,0,0,0,.47,5.39C2.43,50.1,3.94,53.81,6.21,57a1,1,0,0,0,.78.38,1,1,0,0,0,.54-.16.86.86,0,0,0,.37-.55A.82.82,0,0,0,7.77,56a26.68,26.68,0,0,1-4.33-14.9A24.22,24.22,0,0,1,7.72,26.86a16.51,16.51,0,0,1,5.33-4.75,17.36,17.36,0,0,1,6.72-2h.07a.81.81,0,0,1,.78.6.8.8,0,0,1-.46.93c-.32.14-.65.29-1,.46a18.43,18.43,0,0,0-7.55,7.21,20.15,20.15,0,0,0-2.7,10.09,19.48,19.48,0,0,0,1.66,7.92A25.9,25.9,0,0,0,21.24,59.39,30.52,30.52,0,0,0,37,63.65a32,32,0,0,0,4.59-.33.88.88,0,0,0,.78-1,.93.93,0,0,0-1-.76h0a27,27,0,0,1-2.73.14,28.14,28.14,0,0,1-16.73-5.5,20.46,20.46,0,0,1-5.59-6.36,17.07,17.07,0,0,1-2.13-8.31,18.39,18.39,0,0,1,.11-2,10.35,10.35,0,0,1,.25-1.28.8.8,0,0,1,.77-.6h.07a.78.78,0,0,1,.72.73,18.75,18.75,0,0,0,1.58,6.19,17.31,17.31,0,0,0,7.47,8,22.55,22.55,0,0,0,11,2.7A26.63,26.63,0,0,0,53.28,49c5.45-4.62,8.91-11.31,10-19.34l0-.12v-.13a24.65,24.65,0,0,0,.26-2.8A.91.91,0,0,0,62.66,25.68Zm-36.34,7a4.06,4.06,0,1,1,4.06,4.06A4.06,4.06,0,0,1,26.32,32.71Z"/><path class="cls-2" d="M62.66,25.68a.9.9,0,0,0-.92.82c-.06.9-.15,1.83-.27,2.73a28.54,28.54,0,0,1-7.72,15.25,23.44,23.44,0,0,1-6.82,4.93,18.58,18.58,0,0,1-8,1.84,18.78,18.78,0,0,1-7.09-1.43,7.12,7.12,0,0,1-.74-.35.79.79,0,0,1,.37-1.5h.13a18.53,18.53,0,0,0,3.07.26,18.74,18.74,0,0,0,7.76-1.71A21.51,21.51,0,0,0,55,27.2c0-.68,0-1.37-.1-2.06A27,27,0,0,0,48.75,9.75,33.77,33.77,0,0,0,35.65.15l-.11,0L35.22,0H35L34.7,0l.18,0-.16,0A1,1,0,0,0,34.3.4a.54.54,0,0,0-.09.15l-.05.21a.93.93,0,0,0,.05.43l.09.14.1.13.14.11.15.08a29.06,29.06,0,0,1,11.76,9.43,23.44,23.44,0,0,1,4.86,13.61A17.31,17.31,0,0,1,47.19,36q-.28.36-.6.69a.83.83,0,0,1-.58.25.76.76,0,0,1-.47-.16.79.79,0,0,1-.23-1l.39-.77a16.75,16.75,0,0,0,1.59-7.19,20.41,20.41,0,0,0-4-11.83A21.56,21.56,0,0,0,32.68,8.07a27.79,27.79,0,0,0-9.47-1.65A29.1,29.1,0,0,0,6.78,11.54,32.58,32.58,0,0,0,.56,16.8a.58.58,0,0,1-.15.11l-.19.25-.15.23-.06.2a.86.86,0,0,0,0,.32l.06.16.09.14a.69.69,0,0,0,.11.13l.14.11.18.08.16,0H.93a1.05,1.05,0,0,0,.24,0l.17-.06.15-.09.14-.12a28.75,28.75,0,0,1,9.29-6.5,27.5,27.5,0,0,1,11-2.4,20.86,20.86,0,0,1,8.42,1.69,19,19,0,0,1,7.12,5.4,17,17,0,0,1,1.38,2.31.81.81,0,0,1-.72,1.15.78.78,0,0,1-.57-.24A17.49,17.49,0,0,0,34.16,17a18.63,18.63,0,0,0-9.91-2.77,22.48,22.48,0,0,0-11.07,3A24.22,24.22,0,0,0,4.45,25.8,27,27,0,0,0,.81,39.51a32.56,32.56,0,0,0,.47,5.39C2.43,50.1,3.94,53.81,6.21,57a1,1,0,0,0,.78.38,1,1,0,0,0,.54-.16.86.86,0,0,0,.37-.55A.82.82,0,0,0,7.77,56a26.68,26.68,0,0,1-4.33-14.9A24.22,24.22,0,0,1,7.72,26.86a16.51,16.51,0,0,1,5.33-4.75,17.36,17.36,0,0,1,6.72-2h.07a.81.81,0,0,1,.78.6.8.8,0,0,1-.46.93c-.32.14-.65.29-1,.46a18.43,18.43,0,0,0-7.55,7.21,20.15,20.15,0,0,0-2.7,10.09,19.48,19.48,0,0,0,1.66,7.92A25.9,25.9,0,0,0,21.24,59.39,30.52,30.52,0,0,0,37,63.65a32,32,0,0,0,4.59-.33.88.88,0,0,0,.78-1,.93.93,0,0,0-1-.76h0a27,27,0,0,1-2.73.14,28.14,28.14,0,0,1-16.73-5.5,20.46,20.46,0,0,1-5.59-6.36,17.07,17.07,0,0,1-2.13-8.31,18.39,18.39,0,0,1,.11-2,10.35,10.35,0,0,1,.25-1.28.8.8,0,0,1,.77-.6h.07a.78.78,0,0,1,.72.73,18.75,18.75,0,0,0,1.58,6.19,17.31,17.31,0,0,0,7.47,8,22.55,22.55,0,0,0,11,2.7A26.63,26.63,0,0,0,53.28,49c5.45-4.62,8.91-11.31,10-19.34l0-.12v-.13a24.65,24.65,0,0,0,.26-2.8A.91.91,0,0,0,62.66,25.68Zm-36.34,7a4.06,4.06,0,1,1,4.06,4.06A4.06,4.06,0,0,1,26.32,32.71Z"/><path class="cls-3" d="M225.12,24.53a18.32,18.32,0,0,0-3.46-6.24A17,17,0,0,0,215.92,14a20.63,20.63,0,0,0-16,0,17,17,0,0,0-5.74,4.33,18.3,18.3,0,0,0-3.45,6.24,23.71,23.71,0,0,0,0,14.65,18.16,18.16,0,0,0,3.45,6.23,16.55,16.55,0,0,0,5.74,4.31,20.87,20.87,0,0,0,16,0,16.55,16.55,0,0,0,5.74-4.31,18.18,18.18,0,0,0,3.46-6.23,23.9,23.9,0,0,0,0-14.65Zm-4.69,12.88a15.2,15.2,0,0,1-2.36,4.93,12.08,12.08,0,0,1-4.13,3.52,14.22,14.22,0,0,1-12,0,11.9,11.9,0,0,1-4.13-3.52,14.8,14.8,0,0,1-2.36-4.93,20.95,20.95,0,0,1,0-11.11,14.71,14.71,0,0,1,2.36-4.93,11.9,11.9,0,0,1,4.13-3.52,14.22,14.22,0,0,1,12,0,12.08,12.08,0,0,1,4.13,3.52,15.1,15.1,0,0,1,2.36,4.93,20.95,20.95,0,0,1,0,11.11Zm-15.05-5.55h0Zm5.1,0h0v0Zm0,0a2.54,2.54,0,0,1-2.54,2.53h0a2.53,2.53,0,1,1,0-5.06h0A2.54,2.54,0,0,1,210.48,31.87Zm156.75-7.58a17.89,17.89,0,0,0-3.49-6.11,17,17,0,0,0-5.8-4.25,21.37,21.37,0,0,0-16.13,0,17,17,0,0,0-5.8,4.25,17.89,17.89,0,0,0-3.49,6.11,22.68,22.68,0,0,0,0,14.38A17.89,17.89,0,0,0,336,44.78a16.59,16.59,0,0,0,5.8,4.22,21.63,21.63,0,0,0,16.13,0,16.59,16.59,0,0,0,5.8-4.22,17.89,17.89,0,0,0,3.49-6.11,22.68,22.68,0,0,0,0-14.38Zm-4.74,12.64a14.35,14.35,0,0,1-2.38,4.83,11.88,11.88,0,0,1-4.17,3.46,14.8,14.8,0,0,1-12.13,0,11.88,11.88,0,0,1-4.17-3.46,14.35,14.35,0,0,1-2.38-4.83,19.92,19.92,0,0,1,0-10.9,14.35,14.35,0,0,1,2.38-4.83,11.86,11.86,0,0,1,4.17-3.45,14.69,14.69,0,0,1,12.13,0,11.86,11.86,0,0,1,4.17,3.45A14.35,14.35,0,0,1,362.49,26a19.92,19.92,0,0,1,0,10.9Zm-15.34-5.07h0Zm5.09,0h0v0Zm0,0a2.54,2.54,0,0,1-2.54,2.53h0a2.53,2.53,0,0,1,0-5.06h0A2.54,2.54,0,0,1,352.24,31.87Zm35.95,16Zm5.09,0h0Zm0,0a2.53,2.53,0,0,1-2.53,2.53h0a2.53,2.53,0,1,1,0-5.06h0A2.53,2.53,0,0,1,393.28,47.89Zm23.53-1.58-8.56-11.39a10.07,10.07,0,0,0,5.49-2.61q3-2.93,3-8.14c0-3.47-1-6.18-3-8.11s-4.9-2.89-8.76-2.89H390.73a2.54,2.54,0,0,0-2.54,2.54V36.4a2.54,2.54,0,0,0,2.54,2.53h0a2.52,2.52,0,0,0,2.54-2.53c0-.88.48-1.22,1.89-1.22h6.89a2.75,2.75,0,0,0,.35.65l10.24,13.63a2.61,2.61,0,0,0,4.15-3.15ZM393.29,28.47V19.88a2.54,2.54,0,0,1,2.53-2.54h7.44c2.9,0,5,.58,6.35,1.75a6.37,6.37,0,0,1,2,5.08,6.45,6.45,0,0,1-2,5.11c-1.34,1.19-3.45,1.76-6.35,1.72h-7.44A2.53,2.53,0,0,1,393.29,28.47ZM561.18,14.89h0Zm-5.1,0h0v0Zm2.55,2.53a2.54,2.54,0,0,1,2.54-2.53h0a2.53,2.53,0,1,1,0,5.06h0A2.54,2.54,0,0,1,558.63,17.41Zm6.67,22.84a9.11,9.11,0,0,1-1.37,5.09,11.19,11.19,0,0,1-3.51,3.44,15.69,15.69,0,0,1-4.8,1.93,23.89,23.89,0,0,1-5.28.6,22.79,22.79,0,0,1-6.09-.79,15.23,15.23,0,0,1-5-2.37,11.33,11.33,0,0,1-3.43-4.07,11.2,11.2,0,0,1-1-3.21A2.25,2.25,0,0,1,537,38.22h.35a2.28,2.28,0,0,1,2.22,1.89,7.14,7.14,0,0,0,.77,2.15,8.27,8.27,0,0,0,2.46,2.79,10.41,10.41,0,0,0,3.57,1.61,16.69,16.69,0,0,0,4.18.53,19.37,19.37,0,0,0,3.46-.32,10.3,10.3,0,0,0,3.14-1.07,6.11,6.11,0,0,0,2.25-2.06,5.94,5.94,0,0,0,.86-3.33,4.57,4.57,0,0,0-1.05-3.13,7.8,7.8,0,0,0-2.79-2,20.77,20.77,0,0,0-3.94-1.22l-4.48-1c-1.52-.33-3-.71-4.47-1.15a15.86,15.86,0,0,1-3.94-1.72,8.19,8.19,0,0,1-2.79-2.76,8,8,0,0,1-1-4.25,9.64,9.64,0,0,1,1.18-4.88A10.19,10.19,0,0,1,540,15a14.06,14.06,0,0,1,4.45-2,20.36,20.36,0,0,1,5.12-.65h.13c.51,0,2.38.24,2.38,2.06,0,2.1-2,2.11-2.72,2.11a15.92,15.92,0,0,0-3.17.31,8.43,8.43,0,0,0-2.76,1.05,5.55,5.55,0,0,0-1.93,1.95,6,6,0,0,0-.72,3.05,3.8,3.8,0,0,0,1,2.79,7.71,7.71,0,0,0,2.79,1.75,23.43,23.43,0,0,0,3.94,1.12c1.47.3,3,.62,4.48,1s3,.75,4.48,1.22a15,15,0,0,1,3.94,1.91,8.53,8.53,0,0,1,3.83,7.61ZM167.11,50.45h-.51a2.32,2.32,0,0,1-1.93-1L157,37.91a2.33,2.33,0,0,0-3.85,0l-8,11.57a2.34,2.34,0,0,1-1.91,1h0a2.32,2.32,0,0,1-1.91-3.65l9.84-14.16a2.35,2.35,0,0,0,0-2.66L142,16.86a2.32,2.32,0,0,1,1.91-3.65h.41a2.34,2.34,0,0,1,1.94,1l7,10.6a2.32,2.32,0,0,0,3.86,0l2.17-2.76a2.32,2.32,0,1,1,3.82,2.64l-4,5.19a2.33,2.33,0,0,0,0,2.67L169,46.79A2.32,2.32,0,0,1,167.11,50.45Zm-3.74-34.71Zm5.09,0Zm-5.09,0a2.55,2.55,0,0,1,2.54-2.54h0a2.54,2.54,0,0,1,0,5.07h0A2.55,2.55,0,0,1,163.37,15.74ZM462.86,48.36h0a2.1,2.1,0,0,1-2.09,2.09H439.58a2.1,2.1,0,0,1-2.09-2.09v-21a2.5,2.5,0,0,1,2.5-2.5h.1a2.5,2.5,0,0,1,2.5,2.5V44.19a2.08,2.08,0,0,0,2.08,2.08h16.1A2.1,2.1,0,0,1,462.86,48.36ZM437.5,15.74h0v0Zm5.1,0h0Zm-5.1,0A2.54,2.54,0,0,1,440,13.21h0a2.53,2.53,0,1,1,0,5.06h0A2.54,2.54,0,0,1,437.5,15.74ZM120.72,48.22v.33a1.92,1.92,0,0,1-1.92,1.92H96a1.92,1.92,0,0,1-1.92-1.92V15.15A1.92,1.92,0,0,1,96,13.23h12.65a1.92,1.92,0,0,1,1.93,1.92v.33a1.92,1.92,0,0,1-1.93,1.92h-7.55a1.92,1.92,0,0,0-1.92,1.93v8a1.92,1.92,0,0,0,1.92,1.92h16a1.92,1.92,0,0,1,1.92,1.92v.33a1.92,1.92,0,0,1-1.92,1.92h-16a1.92,1.92,0,0,0-1.92,1.93v9a1.93,1.93,0,0,0,1.92,1.93H118.8A1.92,1.92,0,0,1,120.72,48.22Zm-4.36-32.91a2.12,2.12,0,0,1,2.13-2.12h0a2.13,2.13,0,1,1,0,4.25h0A2.13,2.13,0,0,1,116.36,15.31Zm0,0h0Zm4.28,0h0Zm389.13,2.27q-4.77-4.38-13.62-4.38H484.94A1.93,1.93,0,0,0,483,15.13V48.52a1.93,1.93,0,0,0,1.93,1.93h11.21a23.55,23.55,0,0,0,8.26-1.31,14.48,14.48,0,0,0,5.74-3.78,15.32,15.32,0,0,0,3.32-6.1,29.2,29.2,0,0,0,1.08-8.32Q514.55,22,509.77,17.59Zm-1,19.9a14.43,14.43,0,0,1-1.85,4,9.36,9.36,0,0,1-2.55,2.55,12.45,12.45,0,0,1-2.87,1.44,11.92,11.92,0,0,1-2.73.62,21.17,21.17,0,0,1-2.15.13H490a1.92,1.92,0,0,1-1.92-1.92v-25A1.92,1.92,0,0,1,490,17.38h6.66a16.16,16.16,0,0,1,5.95,1,9.75,9.75,0,0,1,3.94,2.82,11.38,11.38,0,0,1,2.2,4.49,24.05,24.05,0,0,1,.67,6A20.88,20.88,0,0,1,508.73,37.49Zm-12.09-5.7h0Zm4.28,0h0Zm0,0a2.13,2.13,0,0,1-2.13,2.12h0a2.13,2.13,0,1,1,0-4.25h0A2.13,2.13,0,0,1,500.92,31.8ZM307.85,27.89l-5.55,20A3.49,3.49,0,0,1,299,50.45h0a3.47,3.47,0,0,1-3.34-2.54l-8-28.75h-.11l-8.13,28.76a3.48,3.48,0,0,1-6.71-.06l-8.33-31.59a2.44,2.44,0,0,1,2.36-3.06h.12a2.43,2.43,0,0,1,2.37,1.86l7.06,29.12h.1l7.85-28.32a3.62,3.62,0,0,1,7,0l7.74,28.31H299l4.17-17.54a2.44,2.44,0,1,1,4.71,1.24Zm3.34-12.15a2.53,2.53,0,0,1-2.53,2.53h0a2.54,2.54,0,1,1,0-5.07h0A2.54,2.54,0,0,1,311.19,15.74Zm0,0h0Zm-5.1,0h0ZM242.68,31.87h0Zm5.1,0h0v0Zm0,0a2.54,2.54,0,0,1-2.54,2.53h0a2.53,2.53,0,1,1,0-5.06h0A2.54,2.54,0,0,1,247.78,31.88Z"/></g></g></svg>